<!DOCTYPE svg PUBLIC "-//W3C//DTD SVG 1.1//EN" "http://www.w3.org/Graphics/SVG/1.1/DTD/svg11.dtd">
<svg xmlns="http://www.w3.org/2000/svg" width="500px" height="500px" viewBox="0 0 500 500">
<g><path style="stroke: rgb(0,0,0); stroke-width: 5; stroke-linecap: round; stroke-linejoin: round; stroke-miterlimit: 4; fill: rgb(240,0,0); fill-opacity: 0.2; fill-rule: nonzero; opacity: 1;" d="M 315 323 L 258 308 L 235 259 L 237 208 L 274 182 L 302 189 L 321 204 L 345 183 L 385 189 L 397 215 L 397 247 L 389 286 L 359 318 Z" /></g>
<g><path style="stroke: rgb(0,0,0); stroke-width: 5; stroke-linecap: round; stroke-linejoin: round; stroke-miterlimit: 4; fill: rgb(100,100,50); fill-opacity: 0.2; fill-rule: nonzero; opacity: 1;" d="M 321 204 L 304 130 L 332 114 Z" /></g>
<g><path style="stroke: rgb(0,0,0); stroke-width: 3; stroke-linecap: round; stroke-linejoin: round; stroke-miterlimit: 4; fill: rgb(240,0,0); fill-opacity: 0.2; fill-rule: nonzero; opacity: 1;" d="M 345 183 L 375 195 L 380 210 L 381 232 L 377 266 L 342 309 L 305 313 L 258 308 L 315 323 L 258 308 L 235 259 L 237 208 L 274 182 L 302 189 L 321 204 Z" /></g>
<g><path style="stroke: rgb(0,0,0); stroke-width: 2; stroke-linecap: round; stroke-linejoin: round; stroke-miterlimit: 4; fill: rgb(255,255,255); fill-opacity: 0.2; fill-rule: nonzero; opacity: 1;" d="M 274 201 L 257 214 L 258 229 L 267 231 L 275 217 Z"/></g></svg>