<!DOCTYPE svg PUBLIC "-//W3C//DTD SVG 1.1//EN" "http://www.w3.org/Graphics/SVG/1.1/DTD/svg11.dtd">
<svg xmlns="http://www.w3.org/2000/svg" width="500px" height="500px" viewBox="0 0 500 500">
<g><path style="stroke: rgb(0,0,0); stroke-width: 5; stroke-linecap: round; stroke-linejoin: round; stroke-miterlimit: 4; fill: rgb(240,240,0); fill-opacity: 0.2; fill-rule: nonzero; opacity: 1;" d="M 198 399 L 190 381 L 199 374 L 202 363 L 235 337 L 293 308 L 343 281 L 389 227 L 398 165 L 395 126 L 399 110 L 379 62 L 402 40 L 409 60 L 416 107 L 435 110 L 454 155 L 466 251 L 433 342 L 361 398 L 221 401 L 211 394 Z" /></g>
<g><path style="stroke: rgb(0,0,0); stroke-width: 3; stroke-linecap: round; stroke-linejoin: round; stroke-miterlimit: 4; fill: rgb(240,240,0); fill-opacity: 0.2; fill-rule: nonzero; opacity: 1;" d="M 395 126 L 415 130 L 424 131 L 429 159 L 428 256 L 400 300 L 353 336 L 210 380 L 199 374 L 202 363 L 235 337 L 293 308 L 343 281 L 389 227 L 398 165 Z" /></g>
<g><path style="stroke: rgb(0,0,0); stroke-width: 3; stroke-linecap: round; stroke-linejoin: round; stroke-miterlimit: 4; fill: rgb(0,0,0); fill-opacity: 0.2; fill-rule: nonzero; opacity: 1;" d="M 210 380 L 211 394 L 198 399 L 190 381 L 199 374 Z" /></g>
<g><path style="stroke: rgb(0,0,0); stroke-width: 3; stroke-linecap: round; stroke-linejoin: round; stroke-miterlimit: 4; fill: rgb(0,0,0); fill-opacity: 0.2; fill-rule: nonzero; opacity: 1;" d="M 379 62 L 409 60 L 402 40 Z" /></g>
<g><path style="stroke: rgb(0,0,0); stroke-width: 2; stroke-linecap: round; stroke-linejoin: round; stroke-miterlimit: 4; fill: rgb(255,255,255); fill-opacity: 0.2; fill-rule: nonzero; opacity: 1;" d="M 386 252 L 367 267 L 364 278 L 380 271 L 385 266 Z" /></g></svg>