<!DOCTYPE svg PUBLIC "-//W3C//DTD SVG 1.1//EN" "http://www.w3.org/Graphics/SVG/1.1/DTD/svg11.dtd">
<svg xmlns="http://www.w3.org/2000/svg" width="500px" height="500px" viewBox="0 0 500 500">
<g><path style="stroke: rgb(0,0,0); stroke-width: 5; stroke-linecap: round; stroke-linejoin: round; stroke-miterlimit: 4; fill: rgb(200,200,250); fill-opacity: 0.2; fill-rule: nonzero; opacity: 1;" d="M 100 309 L 51 283 L 32 214 L 73 139 L 134 132 L 131 95 L 148 50 L 207 14 L 273 20 L 323 64 L 346 133 L 343 155 L 369 154 L 410 162 L 444 210 L 454 273 L 400 311 L 247 315 Z" /></g>
<g><path style="stroke: rgb(0,0,0); stroke-width: 3; stroke-linecap: round; stroke-linejoin: round; stroke-miterlimit: 4; fill: rgb(200,200,250); fill-opacity: 0.2; fill-rule: nonzero; opacity: 1;" d="M 410 162 L 425 197 L 425 262 L 390 287 L 252 300 L 127 296 L 51 283 L 32 214 L 73 139 L 134 132 L 131 95 L 148 50 L 207 14 L 273 20 L 323 64 L 346 133 L 343 155 L 369 154 Z" /></g>
<g><path style="stroke: rgb(0,0,0); stroke-width: 2; stroke-linecap: round; stroke-linejoin: round; stroke-miterlimit: 4; fill: rgb(255,255,255); fill-opacity: 0.2; fill-rule: nonzero; opacity: 1;" d="M 173 70 L 159 80 L 154 107 L 163 110 L 173 91 Z" /></g></svg>