<!DOCTYPE svg PUBLIC "-//W3C//DTD SVG 1.1//EN" "http://www.w3.org/Graphics/SVG/1.1/DTD/svg11.dtd">
<svg xmlns="http://www.w3.org/2000/svg" width="500px" height="500px" viewBox="0 0 500 500">
<g><path style="stroke: rgb(0,0,0); stroke-width: 5; stroke-linecap: round; stroke-linejoin: round; stroke-miterlimit: 4; fill: rgb(200,170,20); fill-opacity: 0.2; fill-rule: nonzero; opacity: 1;" d="M 300 356 L 301 345 L 304 273 L 308 210 L 272 131 L 325 191 L 333 267 L 341 357 Z" /></g>
<g><path style="stroke: rgb(0,0,0); stroke-width: 5; stroke-linecap: round; stroke-linejoin: round; stroke-miterlimit: 4; fill: rgb(200,200,20); fill-opacity: 0.2; fill-rule: nonzero; opacity: 1;" d="M 341 357 L 333 267 L 356 209 L 361 237 L 366 275 L 352 358 Z" /></g>
<g><path style="stroke: rgb(0,0,0); stroke-width: 5; stroke-linecap: round; stroke-linejoin: round; stroke-miterlimit: 4; fill: rgb(200,200,20); fill-opacity: 0.2; fill-rule: nonzero; opacity: 1;" d="M 352 358 L 366 275 L 361 237 L 444 194 L 383 267 L 363 356 Z" /></g>
<g><path style="stroke: rgb(0,0,0); stroke-width: 5; stroke-linecap: round; stroke-linejoin: round; stroke-miterlimit: 4; fill: rgb(200,200,20); fill-opacity: 0.2; fill-rule: nonzero; opacity: 1;" d="M 300 356 L 259 300 L 177 247 L 276 279 L 284 282 L 301 345 Z" /></g>
<g><path style="stroke: rgb(0,0,0); stroke-width: 5; stroke-linecap: round; stroke-linejoin: round; stroke-miterlimit: 4; fill: rgb(255,255,34); fill-opacity: 0.2; fill-rule: nonzero; opacity: 1;" d="M 276 279 L 260 225 L 276 172 L 289 233 L 304 273 L 301 345 L 284 282 Z" /></g></svg>