<!DOCTYPE svg PUBLIC "-//W3C//DTD SVG 1.1//EN" "http://www.w3.org/Graphics/SVG/1.1/DTD/svg11.dtd">
<svg xmlns="http://www.w3.org/2000/svg" width="500px" height="500px" viewBox="0 0 500 500">
<g><path style="stroke: rgb(0,0,0); stroke-width: 5; stroke-linecap: round; stroke-linejoin: round; stroke-miterlimit: 4; fill: rgb(200,170,20); fill-opacity: 0.2; fill-rule: nonzero; opacity: 1;" d="M 195 314 L 184 301 L 187 292 L 193 286 L 185 266 L 180 238 L 181 203 L 199 156 L 240 119 L 295 106 L 319 113 L 332 110 L 343 101 L 357 112 L 350 125 L 353 137 L 367 155 L 374 190 L 369 225 L 344 274 L 326 286 L 289 306 L 248 311 L 208 306 Z" /></g>
<g><path style="stroke: rgb(0,0,0); stroke-width: 3; stroke-linecap: round; stroke-linejoin: round; stroke-miterlimit: 4; fill: rgb(200,200,20); fill-opacity: 0.2; fill-rule: nonzero; opacity: 1;" d="M 353 137 L 359 180 L 343 229 L 300 277 L 248 302 L 208 306 L 195 314 L 184 301 L 187 292 L 193 286 L 185 266 L 180 238 L 181 203 L 199 156 L 240 119 L 295 106 L 319 113 L 332 110 L 343 101 L 357 112 L 350 125 Z" /></g>
<g><path style="stroke: rgb(0,0,0); stroke-width: 2; stroke-linecap: round; stroke-linejoin: round; stroke-miterlimit: 4; fill: rgb(255,255,255); fill-opacity: 0.2; fill-rule: nonzero; opacity: 1;" d="M 254 133 L 240 137 L 227 151 L 241 151 L 250 144 Z" /></g></svg>