<!DOCTYPE svg PUBLIC "-//W3C//DTD SVG 1.1//EN" "http://www.w3.org/Graphics/SVG/1.1/DTD/svg11.dtd">
<svg xmlns="http://www.w3.org/2000/svg" width="500px" height="500px" viewBox="0 0 500 500">
<g><path style="stroke: rgb(0,0,0); stroke-width: 8; stroke-linecap: round; stroke-linejoin: round; stroke-miterlimit: 4; fill: rgb(162,165,168); fill-opacity: 0.33; fill-rule: nonzero; opacity: 1;" d="M 323 155 L 258 242 L 136 240 L 214 158 Z" /></g>
<g><path style="stroke: rgb(0,0,0); stroke-width: 8; stroke-linecap: round; stroke-linejoin: round; stroke-miterlimit: 4; fill: rgb(97,100,103); fill-opacity: 0.33; fill-rule: nonzero; opacity: 1;" d="M 134 249 L 256 253 L 300 361 L 192 336 Z" /></g>
<g><path style="stroke: rgb(0,0,0); stroke-width: 8; stroke-linecap: round; stroke-linejoin: round; stroke-miterlimit: 4; fill: rgb(42,45,48); fill-opacity: 0.33; fill-rule: nonzero; opacity: 1;" d="M 307 356 L 266 249 L 326 164 L 350 265 Z" /></g>
<g><path style="stroke: rgb(0,0,0); stroke-width: 6; stroke-linecap: round; stroke-linejoin: round; stroke-miterlimit: 4; fill: rgb(0,0,0); fill-opacity: 1.0; fill-rule: nonzero; opacity: 1;" d="M 253 178 L 232 177 L 200 218 L 240 219 L 249 205 L 229 206 Z" /></g>
<g><path style="stroke: rgb(0,0,0); stroke-width: 6; stroke-linecap: round; stroke-linejoin: round; stroke-miterlimit: 4; fill: rgb(0,0,0); fill-opacity: 1.0; fill-rule: nonzero; opacity: 1;" d="M 187 282 L 206 317 L 211 306 L 243 311 L 259 325 L 242 289 L 235 295 L 205 292 Z" /></g>
<g><path style="stroke: rgb(0,0,0); stroke-width: 6; stroke-linecap: round; stroke-linejoin: round; stroke-miterlimit: 4; fill: rgb(0,0,0); fill-opacity: 1.0; fill-rule: evenodd; opacity: 1;" d="M 300 274 L 311 303 L 335 262 L 328 245 L 305 250 Z M 314 278 L 313 264 L 321 265 Z" /></g></svg>