<!DOCTYPE svg PUBLIC "-//W3C//DTD SVG 1.1//EN" "http://www.w3.org/Graphics/SVG/1.1/DTD/svg11.dtd">
<svg xmlns="http://www.w3.org/2000/svg" width="500px" height="500px" viewBox="0 0 500 500">
<g><path style="stroke: rgb(0,0,0); stroke-width: 5; stroke-linecap: round; stroke-linejoin: round; stroke-miterlimit: 4; fill: rgb(200,170,100); fill-opacity: 0.2; fill-rule: nonzero; opacity: 1;" d="M 268 431 L 276 302 L 198 263 L 200 219 L 153 148 L 172 158 L 215 212 L 214 244 L 283 273 L 265 205 L 186 126 L 203 123 L 253 175 L 282 190 L 287 137 L 387 75 L 371 49 L 398 53 L 411 88 L 310 155 L 314 195 L 332 214 L 353 272 L 349 330 L 408 234 L 436 250 L 432 278 L 414 264 L 380 366 L 352 403 L 360 433 Z" /></g></svg>